<svg id="Icons" xmlns="http://www.w3.org/2000/svg" viewBox="0 0 512 512"><defs><style>.cls-1{fill:#15be79;}.cls-2{fill:#14a36d;}.cls-3{fill:#aacfe5;}.cls-4{fill:#cde6f6;}.cls-5{fill:#eef9ff;}.cls-6{fill:#f39e22;}.cls-7{fill:#f9c744;}.cls-8{fill:#fff;}.cls-9{fill:#33db92;}</style></defs><title>019-beer-export</title><circle class="cls-1" cx="256" cy="256" r="255.98"/><path class="cls-2" d="M0,255.76A255.63,255.63,0,0,1,103.44,50.44c113.54-84.25,273.87-60.52,358.12,53a254.76,254.76,0,0,1,49.93,136,76.89,76.89,0,0,0-14.24,6.88c-23.84,14.74-42,41.9-69.91,44.44-19.15,1.75-37.29-9.24-51.1-22.62s-24.87-29.51-39.4-42.12a112.53,112.53,0,0,0-157.7,10c-14.17,15.89-26.53,37.44-47.68,40-28.75,3.44-51.22-31.63-80-28.95-9.3.87-17.72,5.66-26.73,8A54.5,54.5,0,0,1,0,255.76Z"/><path class="cls-3" d="M375,116.16l-108.12,29a9.88,9.88,0,0,0-7,12.1l30.36,113.3a20.62,20.62,0,0,0,11.09,13.29l17.79,8.42a20.6,20.6,0,0,1,11.47,15.05l17.94,101.78a11.87,11.87,0,0,0,14.76,9.4l64.87-17.38a11.87,11.87,0,0,0,8.08-15.52l-35.36-97.12a20.57,20.57,0,0,1,2.41-18.76l11.2-16.19a20.62,20.62,0,0,0,3-17.05L387.14,123.14A9.88,9.88,0,0,0,375,116.16Z"/><path class="cls-4" d="M387.13,123.14l30.36,113.31a20.58,20.58,0,0,1-2.95,17.05l-11.19,16.19a20.58,20.58,0,0,0-2.42,18.76l35.35,97.12a11.86,11.86,0,0,1-8.07,15.52l-50.15,13.43a11.85,11.85,0,0,1-14.75-9.4L343.33,296a20.63,20.63,0,0,0-11.47-15.05l-17.79-8.42A20.6,20.6,0,0,1,303,259.19L274.66,153.28a9.87,9.87,0,0,1,7-12.09l93.4-25A9.87,9.87,0,0,1,387.13,123.14Z"/><rect class="cls-5" x="381.11" y="136.43" width="15.24" height="44.22" rx="7.62" transform="translate(-27.79 106.01) rotate(-15)"/><rect class="cls-5" x="392.32" y="186.74" width="15.24" height="27.35" rx="7.62" transform="matrix(0.97, -0.26, 0.26, 0.97, -38.24, 110.34)"/><path class="cls-6" d="M376.87,143.74H272.1l30.95,115.48a20.56,20.56,0,0,0,11.08,13.29l17.72,8.39a20.6,20.6,0,0,1,11.5,15.16l16.07,94.25a11.87,11.87,0,0,0,14.77,9.47l35.28-9.45a11.86,11.86,0,0,0,8-15.58l-33.21-89.66a20.6,20.6,0,0,1,2.38-18.88l11.15-16.13a20.62,20.62,0,0,0,3-17.05Z"/><ellipse class="cls-7" cx="362.49" cy="169.95" rx="13.23" ry="24.87" transform="translate(-31.64 99.61) rotate(-15)"/><ellipse class="cls-7" cx="374.28" cy="213.94" rx="8.25" ry="15.51" transform="translate(-42.62 104.16) rotate(-15)"/><path class="cls-8" d="M376.87,143.73H272.1a14.39,14.39,0,0,1,19.43-13.5,14.4,14.4,0,0,1,28.68-.3,22.33,22.33,0,0,1,25-1.66,11.14,11.14,0,0,1,22.24,1.05,10.77,10.77,0,0,1-.51,3.32A11.15,11.15,0,0,1,376.87,143.73Z"/><circle class="cls-8" cx="310.18" cy="137.46" r="6"/><circle class="cls-8" cx="332.61" cy="182.62" r="6"/><circle class="cls-8" cx="318.37" cy="209.32" r="7.13"/><circle class="cls-8" cx="345.13" cy="212.88" r="9.22"/><circle class="cls-8" cx="296.69" cy="160.31" r="9.22"/><circle class="cls-8" cx="330.96" cy="151.09" r="9.22"/><circle class="cls-8" cx="373" cy="301.6" r="6"/><circle class="cls-8" cx="364.18" cy="250.33" r="6"/><circle class="cls-8" cx="394.37" cy="358.2" r="6"/><circle class="cls-8" cx="355.06" cy="277.31" r="6"/><circle class="cls-8" cx="315.74" cy="245.26" r="6"/><circle class="cls-8" cx="369.97" cy="342.58" r="7.73"/><path class="cls-8" d="M267.59,259.88h0a15.09,15.09,0,0,1-15.08-15.09l7.6-103.35a7.5,7.5,0,0,1,7.48-7.19h0a7.5,7.5,0,0,1,7.49,7.19l7.6,103.35A15.09,15.09,0,0,1,267.59,259.88Z"/><rect class="cls-8" x="252.51" y="280.82" width="30.17" height="43.48" rx="15.08"/><path class="cls-3" d="M137,116.16l108.12,29a9.88,9.88,0,0,1,7,12.1l-30.36,113.3a20.62,20.62,0,0,1-11.09,13.29l-17.79,8.42a20.6,20.6,0,0,0-11.47,15.05L163.42,409.07a11.87,11.87,0,0,1-14.76,9.4L83.79,401.09a11.87,11.87,0,0,1-8.08-15.52l35.36-97.12a20.57,20.57,0,0,0-2.41-18.76L97.46,253.5a20.62,20.62,0,0,1-3-17.05l30.36-113.31A9.88,9.88,0,0,1,137,116.16Z"/><path class="cls-4" d="M124.87,123.14,94.51,236.45a20.58,20.58,0,0,0,2.95,17.05l11.19,16.19a20.58,20.58,0,0,1,2.42,18.76L75.72,385.57a11.86,11.86,0,0,0,8.07,15.52l50.15,13.43a11.85,11.85,0,0,0,14.75-9.4l20-109.17a20.63,20.63,0,0,1,11.47-15.05l17.79-8.42A20.6,20.6,0,0,0,209,259.19l28.32-105.91a9.87,9.87,0,0,0-7-12.09l-93.4-25A9.87,9.87,0,0,0,124.87,123.14Z"/><rect class="cls-5" x="115.65" y="136.43" width="15.24" height="44.22" rx="7.62" transform="translate(201.31 343.58) rotate(-165)"/><rect class="cls-5" x="104.43" y="186.74" width="15.24" height="27.35" rx="7.62" transform="translate(168.42 423) rotate(-165)"/><path class="cls-6" d="M135.13,143.74H239.9L209,259.22a20.56,20.56,0,0,1-11.08,13.29l-17.72,8.39a20.6,20.6,0,0,0-11.5,15.16l-16.07,94.25a11.87,11.87,0,0,1-14.77,9.47l-35.28-9.45a11.86,11.86,0,0,1-8-15.58l33.21-89.66a20.6,20.6,0,0,0-2.38-18.88l-11.15-16.13a20.62,20.62,0,0,1-3-17.05Z"/><ellipse class="cls-7" cx="149.51" cy="169.95" rx="24.87" ry="13.23" transform="matrix(0.26, -0.97, 0.97, 0.26, -53.35, 270.38)"/><ellipse class="cls-7" cx="137.72" cy="213.94" rx="15.51" ry="8.25" transform="translate(-104.57 291.6) rotate(-75)"/><path class="cls-8" d="M135.13,143.73H239.9a14.39,14.39,0,0,0-19.43-13.5,14.4,14.4,0,0,0-28.68-.3,22.33,22.33,0,0,0-25-1.66,11.14,11.14,0,0,0-22.24,1.05,10.77,10.77,0,0,0,.51,3.32A11.15,11.15,0,0,0,135.13,143.73Z"/><circle class="cls-8" cx="201.82" cy="137.46" r="6"/><circle class="cls-8" cx="179.39" cy="182.62" r="6"/><circle class="cls-8" cx="193.63" cy="209.32" r="7.13"/><circle class="cls-8" cx="166.87" cy="212.88" r="9.22"/><circle class="cls-8" cx="215.31" cy="160.31" r="9.22"/><circle class="cls-8" cx="181.04" cy="151.09" r="9.22"/><circle class="cls-8" cx="139" cy="301.6" r="6"/><circle class="cls-8" cx="147.82" cy="250.33" r="6"/><circle class="cls-8" cx="117.63" cy="358.2" r="6"/><circle class="cls-8" cx="156.94" cy="277.31" r="6"/><circle class="cls-8" cx="196.26" cy="245.26" r="6"/><circle class="cls-8" cx="142.03" cy="342.58" r="7.73"/><rect class="cls-9" x="251.74" y="39.04" width="8.51" height="54.43" rx="4.26"/><rect class="cls-9" x="224.98" y="51.75" width="8.51" height="44.01" rx="4.26" transform="translate(-11.28 61.84) rotate(-15)"/><rect class="cls-9" x="200.93" y="70.98" width="8.51" height="32.56" rx="4.26" transform="translate(-16.14 114.29) rotate(-30)"/><rect class="cls-9" x="278.51" y="51.75" width="8.51" height="44.01" rx="4.26" transform="translate(536.81 218.18) rotate(-165)"/><rect class="cls-9" x="302.55" y="70.98" width="8.51" height="32.56" rx="4.26" transform="translate(528.88 316.24) rotate(-150)"/></svg>